<?xml version="1.0" encoding="utf-8"?>
<!-- Generator: Adobe Illustrator 14.0.0, SVG Export Plug-In . SVG Version: 6.00 Build 43363)  -->
<!DOCTYPE svg PUBLIC "-//W3C//DTD SVG 1.1//EN" "http://www.w3.org/Graphics/SVG/1.1/DTD/svg11.dtd">
<svg version="1.1" xmlns="http://www.w3.org/2000/svg" xmlns:xlink="http://www.w3.org/1999/xlink" x="0px" y="0px"
	 width="757.462px" height="96px" viewBox="0 0 757.462 96" enable-background="new 0 0 757.462 96" xml:space="preserve">
<g id="Guides_For_Artboard">
</g>
<g id="Guides_For_Artboard_1_">
</g>
<g id="Layer_1">
	<g>
		<g>
			<g>
				<defs>
					<path id="SVGID_1_" d="M624.465,44.799c4.108-0.302,7.999-0.327,11.403-0.291c3.912,0.037,7.318-0.04,10.287,1.351
						c1.457,0.686,2.795,1.906,3.959,3.172c1.189,1.308,2.42,2.734,3.416,4.114c1.426,1.952,2.433,4.021,3.896,5.934
						c1.321,1.724,3.097,3.472,4.933,5.127c1.311,1.195,3.852,3.96,6.137,3.357c1.314-0.348,1.904-1.643,1.811-2.983
						c-0.123-1.719-1.434-3.312-1.802-5.018c-0.176-0.798-0.341-1.776-0.24-2.46c0.397-2.688,4.718-2.771,6.161-0.838
						c0.854,1.142,0.971,3.211,1.789,4.915c0.247,0.513,0.875,1.08,1.296,1.771c0.434,0.708,0.729,1.567,1.136,2.167
						c0.463,0.675,1.297,1.361,1.982,2.243c0.641,0.805,1.174,1.835,1.805,2.518c0.873,0.955,2.232,1.931,3.428,2.918
						c0.588,0.483,1.15,1.009,1.718,1.456c1.36,1.084,2.28,1.686,3.708,2.505c1.508,0.877,4.069,1.952,5.846,1.856
						c2.467-0.138,4.578-1.269,4.894-3.094c-0.199-2.02-1.303-3.349-2.132-4.842c-1.137-2.06-2.297-4.997-2.915-7.678
						c-0.224-0.977-0.306-1.838-0.65-2.73c-0.314-0.832-0.685-1.63-1.064-2.424c-0.379-0.805-0.916-1.623-1.06-2.42
						c-0.356-1.876,0.409-3.578,1.883-3.825c1.074-0.186,2.039,0.72,2.955,1.694c0.873,0.938,1.816,1.77,2.398,2.522
						c1.227,1.608,2.174,3.487,3.389,5.192c2.374,3.326,4.788,6.557,8.199,8.443c0.799,0.441,1.674,0.918,2.539,1.416
						c0.812,0.466,1.888,1.151,2.64,1.286c1.415,0.241,3.697-0.185,4.438-1.101c0.442-0.548,0.659-2.217,0.712-3.124
						c0.078-1.387,0-3.28-0.176-4.619c-0.102-0.753-0.332-1.411-0.453-1.704c-0.592-1.455-1.812-2.748-2.799-3.996
						c-0.517-0.65-0.9-1.411-1.367-2.121c-0.46-0.694-1.104-1.22-1.549-1.848c-0.907-1.271-1.627-2.508-2.043-4.385
						c0.973-1.831,2.97-1.357,4.877-0.704c2.22,0.769,4.099,1.356,6.053,2.293c1.059,0.507,2.006,1.279,2.82,1.602
						c0.356,0.147,0.816,0.107,1.24,0.241c0.439,0.133,0.851,0.443,1.172,0.489c1.13,0.171,2.936-0.119,4.593-0.295
						c1.907-0.197,3.504-0.72,3.575-1.883c0.092-1.484-1.088-2.156-2.443-2.753c-1.207-0.529-2.062-0.64-3.578-1.222
						c-0.493-0.185-1.035-0.656-1.735-0.972c-1.764-0.793-4.38-1.438-4.941-3.339c-1.137-3.8,3.739-4.426,7.127-4.48
						c4.095-0.067,8.849,0.783,12.73-0.198c1.829-0.462,3.433-1.418,4.177-2.478c0.407-0.574,0.87-1.648,0.799-2.661
						c-0.289-4.021-3.957-4.073-6.934-4.39c-0.943-0.1-1.824-0.265-2.688-0.314c-2.152-0.137-4.221-0.042-5.77-0.2
						c-0.645-0.064-3.528-0.757-3.852-1.4c-0.215-0.427-0.273-2.546-0.21-2.947c0.134-0.813,0.982-1.547,1.462-2.308
						c0.47-0.746,1.066-1.948,0.754-2.893c-0.398-1.198-2.986-1.926-4.489-2.235c-0.983-0.201-2.136-0.091-3.289-0.32
						c-1.149-0.229-2.354-0.595-3.188-0.461c-2.058,0.349-3.189,1.877-4.159,3.198c-0.26,0.612,0.492,1.153,0.309,1.611
						c-0.633,0.812-0.568,1.842-1.023,2.701c-0.934,1.751-2.858,3.256-5.264,3.646c-2.071,0.337-4.222-0.241-4.838-1.569
						c-0.735-1.561,0.08-2.532,0.662-3.949c0.476-1.152,1.1-2.159,1.444-3.026c0.549-1.372,0.935-3.315,1.554-4.955
						c0.623-1.658,1.725-3.264,1.678-4.86c-0.041-1.62-0.752-3.684-1.552-4.355c-1.067-0.888-3.779-0.831-6.229-0.108
						c-1.916,0.568-4.402,2.319-6.115,2.971c-1.381,0.534-3.35,0.666-4.048,1.265c-0.338,0.289-0.552,0.766-0.812,1.349
						c-0.631,1.425-0.93,3.053-0.856,4.824c-0.595,1.923-1.999,3.857-3.054,5.838c-0.272,0.524-0.294,1.06-0.535,1.538
						c-0.229,0.457-0.648,0.929-0.926,1.374c-0.616,0.976-1.336,1.949-2.686,2.191c-1.297,0.231-3.297-0.423-3.734-1.428
						c-0.335-0.772-0.188-1.795-0.006-2.508c0.453-1.791,1.414-2.768,2.57-3.954c0.715-0.73,1.246-1.113,1.488-2.201
						c0.58-2.575-0.695-4.958-1.913-6.198c-1.221-1.231-2.634-1.928-4.262-2.275c-3.122,0.075-5.26,0.815-6.612,2.236
						c-0.14,0.145-0.384,0.196-0.523,0.338c-0.211,0.211-0.343,0.571-0.561,0.825c-0.328,0.373-0.709,0.56-0.812,0.753
						c-1.22,2.3-1.67,5.775-1.934,8.491c-0.26,2.634-0.933,4.959-2.547,6.577c-0.783,0.792-2.267,1.664-3.6,1.772
						c-2.785,0.23-3.769-3.062-3.509-5.768c0.142-1.361,0.987-2.52,0.306-3.996c-0.136-0.3-0.962-0.965-1.396-1.046
						c-2.097-0.391-4.265,1.712-5.144,3.028c-0.345,0.51-0.568,1.166-0.839,1.83c-0.268,0.655-0.692,1.437-0.814,1.946
						c-0.19,0.809-0.089,1.709-0.226,2.554c-0.133,0.795-0.327,1.566-0.497,2.364c-0.345,1.62-0.576,3.337-1.113,4.749
						c-0.354,0.943-1.405,2.051-2.104,2.678c-1.328,1.18-3.051,1.918-4.777,3.074c-1.898,0.412-3.52,1.584-5.418,2.234
						c-2.307,0.797-4.889,0.884-7.406,1.196c-2.564,0.317-5.094,0.656-7.567,0.985c0.079,0.426,0.162,0.851,0.241,1.268
						C624.137,44.793,624.353,44.722,624.465,44.799z"/>
				</defs>
				<use xlink:href="#SVGID_1_"  overflow="visible" fill-rule="evenodd" clip-rule="evenodd" fill="#921C1E"/>
				<clipPath id="SVGID_2_">
					<use xlink:href="#SVGID_1_"  overflow="visible"/>
				</clipPath>
			</g>
			<path fill-rule="evenodd" clip-rule="evenodd" fill="#710D0E" d="M696.382,73.86c-0.15,0-0.335-0.19-0.512-0.376
				c-0.096-0.104-0.194-0.203-0.287-0.285c-1.572-1.343-2.729-3.081-4.065-5.221c-0.157-0.242-0.331-0.446-0.501-0.642
				c-0.178-0.211-0.34-0.394-0.454-0.601c-0.14-0.239-0.23-0.502-0.323-0.785c-0.096-0.286-0.197-0.581-0.351-0.862
				c-0.621-1.118-1.47-2.139-2.284-3.12l-0.092-0.11c-0.185-0.229-0.373-0.446-0.551-0.674c-0.842-1.036-1.692-2.171-2.511-3.26
				c-1.862-2.473-3.765-5.006-5.954-7.073c-0.328-0.305-0.64-0.629-0.948-0.947c-0.485-0.501-0.942-0.967-1.421-1.356
				c-0.442-0.358-0.955-0.654-1.452-0.936c-0.44-0.25-0.896-0.511-1.28-0.812c-0.223-0.174-0.433-0.402-0.606-0.604
				c-0.228-0.253-0.452-0.502-0.725-0.698c-0.573-0.404-1.29-0.688-2.048-0.979c-0.379-0.149-0.77-0.3-1.145-0.474
				c-0.211-0.096-0.423-0.206-0.625-0.316c-0.296-0.156-0.632-0.337-0.979-0.459c-0.573-0.203-1.13-0.359-1.665-0.514
				c-0.61-0.173-1.236-0.347-1.889-0.588c-0.42-0.155-0.879-0.333-1.409-0.558c-0.681-0.291-2.517-0.434-3.536-0.435
				c-1.691,0-3.543,0.403-5.17,0.758l-0.484,0.104l0.309,0.384c0.685,0.851,1.475,1.672,2.439,2.654
				c1.588,1.625,2.936,3.491,4.592,5.983c1.428,2.15,2.559,4.303,3.561,6.774c0.055,0.134,0.121,0.282,0.201,0.439
				c0.293,0.601,0.594,1.231,0.246,1.681c-0.409-0.186-0.604-0.857-0.799-1.507c-0.086-0.297-0.176-0.593-0.284-0.854
				c-2.085-5.074-5.867-11.881-12.05-15.509l-0.049-0.023l-0.1-0.022c-0.832,0.13-1.648,0.308-2.441,0.474
				c-1.317,0.277-2.66,0.562-3.817,0.619c-0.036,0.006-0.067,0.014-0.091,0.015c0-0.003,0-0.015,0-0.021
				c0.1-0.502,0.805-0.62,1.555-0.741c0.183-0.032,0.339-0.055,0.485-0.088c0.544-0.114,1.167-0.184,1.771-0.257
				c0.915-0.104,1.838-0.208,2.547-0.459c0.545-0.194,1.257-0.916,2.062-1.765c0.261-0.277,0.541-0.54,0.82-0.803
				c0.371-0.346,0.713-0.663,0.994-0.99c0.922-1.077,2.314-3.617,2.732-4.796c0.416-1.189,0.393-1.868,0.355-3.104
				c-0.006-0.263-0.016-0.554-0.018-0.882c0-0.133-0.02-0.283-0.037-0.438c-0.028-0.244-0.072-0.616,0.023-0.722
				c0.025-0.036,0.092-0.045,0.146-0.045c0.021,0,0.057,0,0.113,0.076c0.562,0.737,0.292,4.178,0.119,4.807
				c-0.189,0.695-0.785,1.733-1.313,2.651c-1.229,2.138-2.185,3.198-3.905,5.047l-0.28,0.302l0.368,0.177
				c0.252,0.121,0.507,0.177,0.791,0.177c0.373,0,0.747-0.096,1.137-0.21c0.236-0.06,0.471-0.127,0.728-0.179
				c0.487-0.095,0.995-0.144,1.6-0.144c0.481,0,0.974,0.034,1.444,0.062l0.324,0.02c0.281,0.016,0.553,0.031,0.817,0.053
				c0.562,0.038,1.095,0.072,1.627,0.072c1.011,0,2.265-0.116,3.886-0.999c2.025-1.098,3.931-3.012,5.614-4.696l0.602-0.6
				c2.112-2.097,3.687-4.041,5.011-7.262c0.44-1.066,0.518-2.192,0.605-3.49c0.026-0.393,0.053-0.764,0.086-1.146
				c0.124-1.301,0.161-1.987-0.393-3.297c-0.162-0.395-0.419-0.749-0.649-1.062c-0.233-0.328-0.455-0.636-0.572-0.956
				c-0.312-0.836-0.778-2.082-0.136-2.828c0.253,0.402,0.393,1.035,0.53,1.647c0.205,0.957,0.425,1.945,1.109,2.365l0.202,0.122
				l0.17-0.162c0.299-0.294,0.545-0.676,0.775-1.039c0.404-0.636,0.785-1.232,1.428-1.381c0.109,0.496-0.409,0.974-0.869,1.395
				l-0.254,0.24l-0.005,0.062c-0.032,0.472-0.21,0.808-0.381,1.13c-0.173,0.321-0.366,0.68-0.396,1.105
				c-0.018,0.3,0.068,0.584,0.141,0.828c0.064,0.204,0.124,0.391,0.131,0.579c0.003,0.253-0.094,0.562-0.182,0.867
				c-0.083,0.259-0.174,0.557-0.199,0.838c-0.053,0.523-0.075,1.011-0.092,1.479c-0.041,0.998-0.078,1.854-0.381,2.728
				c-0.101,0.301-0.301,0.666-0.509,1.047c-0.121,0.212-0.234,0.419-0.339,0.63c-1.422,2.864-3.672,5.245-5.891,7.395
				c-0.434,0.415-0.877,0.767-1.349,1.136c-0.29,0.225-0.585,0.46-0.902,0.722l-0.406,0.347c-0.684,0.582-1.53,1.305-2.36,1.847
				l-0.662,0.438l0.785,0.114c1.225,0.183,2.474,0.21,3.527,0.21c0.424,0,0.846-0.002,1.27-0.006l0.734-0.006
				c0.435,0,0.883,0.006,1.325,0.012c0.452,0.009,0.907,0.017,1.357,0.017c0.97,0,1.71-0.035,2.396-0.111
				c1.623-0.183,2.899-0.527,4.25-0.888l0.715-0.195c12.03-3.174,16.572-10.994,19.181-17.455c0.292-0.718,0.511-1.446,0.723-2.152
				c0.271-0.897,0.544-1.823,0.96-2.692l0.05-0.099c1.026-2.157,2.084-4.383,3.55-6.406c0.075-0.105,0.15-0.228,0.235-0.354
				c0.303-0.471,0.604-0.948,1.091-1.052c-0.041,0.476-0.44,1.018-0.801,1.498c-0.131,0.172-0.26,0.346-0.367,0.511
				c-1.802,2.736-3.115,5.312-4.01,7.879c-0.171,0.479-0.299,0.969-0.432,1.44c-0.135,0.52-0.267,1.004-0.438,1.469
				c-0.201,0.541-0.462,1.027-0.729,1.541c-0.188,0.344-0.371,0.698-0.545,1.071c-3.446,7.531-8.806,12.244-16.848,14.833
				l-0.115,0.035l0.037,0.533l0.118,0.018c0.358,0.066,0.727,0.094,1.131,0.094c0.888,0,1.764-0.146,2.687-0.302
				c0.575-0.097,1.178-0.199,1.78-0.258c0.238-0.022,0.467-0.034,0.7-0.034c0.417,0,0.837,0.031,1.25,0.059
				c0.407,0.03,0.864,0.061,1.31,0.061c0.293,0,0.564-0.016,0.814-0.039c0.391-0.038,0.783-0.131,1.166-0.216
				c0.342-0.084,0.688-0.163,1.021-0.201l1.289-0.16c1.715-0.208,3.484-0.423,5.359-0.771c1.136-0.211,2.341-0.576,3.624-0.96
				c0.782-0.236,1.538-0.464,2.286-0.665c0.677-0.176,1.376-0.328,1.991-0.464c0.939-0.209,1.825-0.403,2.694-0.678
				c0.558-0.173,1.107-0.4,1.643-0.623c0.52-0.208,1.053-0.43,1.588-0.602c0.452-0.146,0.917-0.27,1.364-0.39
				c0.964-0.254,1.827-0.486,2.508-0.847c0.995-0.525,2.833-2.489,3.394-3.631c0.312-0.634,0.566-1.578,0.684-2.234
				c0.039-0.227,0.027-0.463,0.008-0.668c-0.008-0.181-0.02-0.367,0-0.544c0.02-0.136,0.082-0.295,0.135-0.441
				c0.066-0.187,0.137-0.372,0.157-0.573c0.017-0.193-0.013-0.384-0.039-0.586c-0.058-0.422-0.08-0.695,0.132-0.886
				c0.115,0.007,0.173,0.079,0.305,0.325c0.094,0.183,0.198,0.383,0.391,0.52l0.168,0.116l0.17-0.111
				c0.691-0.452,1.271-1.029,1.834-1.589c0.248-0.246,0.5-0.493,0.75-0.728c0.229-0.203,0.437-0.445,0.64-0.68
				c0.447-0.528,0.872-1.024,1.479-1.145c-0.048,0.581-0.664,1.072-1.263,1.548c-0.234,0.188-0.466,0.372-0.659,0.556
				c-0.251,0.243-0.49,0.519-0.738,0.806c-0.153,0.176-0.3,0.346-0.449,0.507c-0.143,0.151-0.307,0.304-0.469,0.453
				c-0.289,0.264-0.555,0.51-0.75,0.753c-0.658,0.835-0.963,1.855-1.26,2.844c-0.162,0.541-0.332,1.105-0.556,1.626
				c-0.196,0.454-0.489,0.825-0.774,1.187c-0.33,0.423-0.663,0.852-0.881,1.414l-0.182,0.469l0.5-0.06
				c0.61-0.073,1.209-0.213,1.791-0.346c0.818-0.188,1.584-0.362,2.329-0.362h0.12c0.389,0.008,0.822,0.094,1.277,0.186
				c0.508,0.1,1.013,0.198,1.539,0.224c0.178,0.009,0.359,0.013,0.538,0.013c0.304,0,0.603-0.008,0.905-0.019
				c0.332-0.012,0.613-0.021,0.898-0.021c0.251,0,0.5,0.008,0.751,0.027c0.802,0.059,1.63,0.192,2.507,0.334
				c0.971,0.152,1.966,0.312,3.005,0.39c0.18,0.014,0.348,0.016,0.503,0.021c0.701,0.014,0.734,0.055,0.758,0.247
				c0.012,0.097-0.02,0.149-0.049,0.181c-0.063,0.07-0.297,0.234-1.091,0.234c-0.626,0-1.317-0.102-1.733-0.161l-0.266-0.038
				l-0.406-0.048c-0.538-0.067-1.004-0.124-1.411-0.194c-0.309-0.047-0.581-0.119-0.834-0.184c-0.329-0.087-0.636-0.17-0.938-0.193
				c-0.188-0.017-0.395-0.021-0.611-0.021c-0.311,0-0.645,0.012-0.996,0.025c-0.401,0.018-0.779,0.029-1.162,0.029
				c-0.351,0-0.652-0.01-0.934-0.034c-0.377-0.036-0.755-0.093-1.122-0.146c-0.63-0.094-1.207-0.176-1.778-0.176
				c-0.246,0-0.469,0.011-0.686,0.046c-1.584,0.234-3.248,0.71-4.854,1.172l-0.099,0.024c-0.45,0.133-0.906,0.263-1.344,0.384
				c-1.703,0.464-3.222,0.992-4.832,1.553c-1.353,0.47-2.75,0.953-4.268,1.399l-0.482,0.142l0.349,0.361
				c0.49,0.51,1.132,0.587,1.705,0.652c0.297,0.03,0.572,0.067,0.823,0.149c0.283,0.097,0.558,0.297,0.854,0.505
				c0.237,0.169,0.473,0.337,0.729,0.472c0.68,0.37,1.424,0.687,2.084,0.958c0.504,0.211,0.982,0.409,1.459,0.639
				c0.309,0.145,0.637,0.262,0.921,0.366c0.32,0.113,0.62,0.22,0.882,0.354c0.444,0.231,0.906,0.596,1.352,0.945
				c0.318,0.257,0.65,0.514,0.976,0.729c1.841,1.223,3.403,2.212,4.905,3.118c0.211,0.123,0.441,0.228,0.668,0.33
				c0.504,0.225,1.027,0.458,1.228,0.89c-0.129,0.06-0.255,0.086-0.396,0.086c-0.529,0-1.084-0.411-1.568-0.769
				c-0.146-0.111-0.287-0.208-0.414-0.297c-0.518-0.342-1.07-0.638-1.601-0.922c-0.414-0.217-0.837-0.447-1.224-0.687
				c-0.735-0.459-1.452-0.985-2.209-1.548l-0.051-0.035c-0.256-0.188-0.511-0.374-0.769-0.56c-1.216-0.881-2.752-1.53-4.374-2.213
				c-0.628-0.267-1.254-0.526-1.863-0.8c-0.467-0.216-0.913-0.444-1.352-0.663c-1.49-0.76-2.897-1.465-4.715-1.465
				c-0.225,0-0.456,0.008-0.697,0.03c-1.358,0.137-2.678,0.466-4.07,0.813c-0.808,0.201-1.635,0.409-2.49,0.581
				c-2.818,0.567-5.783,1.117-8.312,1.117c-0.162,0-0.318-0.001-0.479-0.005l-0.759-0.027l0.535,0.542
				c0.679,0.682,1.563,1.054,2.414,1.413c0.249,0.106,0.5,0.21,0.739,0.322c1.443,0.671,2.82,1.359,4.156,2.025
				c0.782,0.391,1.525,0.764,2.307,1.143c1.551,0.756,2.707,1.41,4.009,2.507c0.118,0.107,0.249,0.156,0.363,0.19
				c0.067,0.027,0.14,0.05,0.173,0.074c0.037,0.028,0.062,0.103,0.1,0.177c0.049,0.115,0.11,0.245,0.23,0.346
				c0.271,0.237,0.567,0.456,0.859,0.666c0.33,0.242,0.674,0.493,0.961,0.762c0.381,0.363,0.702,0.771,1.035,1.208
				c0.17,0.216,0.322,0.414,0.485,0.614c0.258,0.309,0.542,0.579,0.815,0.835c0.443,0.416,0.858,0.81,1.139,1.35
				c0.164,0.332,0.278,0.703,0.388,1.063c0.106,0.352,0.214,0.71,0.378,1.052c0.714,1.503,1.67,2.842,2.688,3.765
				c0.163,0.151,0.356,0.271,0.556,0.394c0.396,0.241,0.731,0.449,0.828,0.841c-0.151,0.076-0.298,0.111-0.437,0.111
				c-0.528,0-0.985-0.499-1.348-0.899l-0.097-0.102c-0.508-0.544-1.211-1.332-1.685-2.025c-0.532-0.776-0.984-1.696-1.42-2.592
				c-0.418-0.86-0.851-1.741-1.35-2.48c-0.457-0.67-1.319-1.565-2.017-2.279c-0.373-0.383-0.807-0.687-1.23-0.977
				c-0.313-0.218-0.619-0.429-0.896-0.668c-0.326-0.273-0.6-0.608-0.864-0.941c-0.264-0.327-0.516-0.64-0.806-0.888
				c-0.757-0.626-1.879-1.166-2.961-1.683l-0.669-0.32c-1.071-0.523-2.159-1.05-3.195-1.508c-0.472-0.205-0.956-0.398-1.442-0.594
				c-0.698-0.28-1.398-0.561-2.064-0.872c-0.386-0.181-0.763-0.384-1.137-0.585c-0.812-0.435-1.551-0.836-2.328-1.045
				c-0.203-0.052-0.412-0.059-0.607-0.059h-0.264c-0.152,0-0.322-0.002-0.469-0.038c-0.26-0.063-0.482-0.175-0.693-0.28
				c-0.322-0.159-0.685-0.34-1.169-0.34c-0.983,0-1.962,0.144-2.902,0.279c-0.778,0.108-1.576,0.228-2.374,0.27
				c-4.034,0.187-8.014,0.189-11.862,0.194l-3.692,0.007l0.744,0.55c0.602,0.436,1.295,0.731,1.968,1.021
				c0.298,0.123,0.581,0.246,0.858,0.378l0.242,0.117c0.875,0.419,1.779,0.854,2.51,1.348c0.297,0.203,0.58,0.469,0.858,0.729
				c0.267,0.247,0.542,0.506,0.844,0.726l0.265,0.188c1.565,1.13,2.916,2.105,4.37,3.536c1.449,1.428,2.672,2.873,4.087,4.551
				c0.281,0.34,0.568,0.668,0.864,1.01c0.727,0.841,1.472,1.704,2.083,2.579c1.125,1.603,2.402,3.423,3.967,4.9
				c1.566,1.483,3.377,2.317,4.947,2.94c0.127,0.051,0.268,0.074,0.418,0.097c0.356,0.055,0.457,0.103,0.485,0.188
				c-0.251,0.129-0.507,0.194-0.78,0.194c-0.609,0-1.232-0.326-1.84-0.635c-0.486-0.255-0.986-0.508-1.484-0.609l-0.379-0.073
				l0.012,0.384c0.027,0.688,0.467,1.16,0.819,1.543c0.171,0.175,0.321,0.346,0.434,0.523c0.257,0.41,0.489,0.832,0.71,1.239
				c0.443,0.804,0.845,1.536,1.406,2.209c0.26,0.307,0.57,0.572,0.873,0.829c0.574,0.485,1.11,0.94,1.242,1.621
				C696.443,73.856,696.411,73.86,696.382,73.86L696.382,73.86z"/>
		</g>
		<g>
			<g>
				<g>
					<defs>
						<path id="SVGID_3_" d="M517.571,24.537c0.563,0.202,1.045,0.536,1.586,0.731c1.042,0.361,2.203,0.614,3.248,0.881
							c1.106,0.28,2.208,0.608,3.316,0.833c0.531,0.11,1.099,0.141,1.649,0.273c2.261,0.539,4.297,1.047,6.531,1.943
							c0.531,0.21,1.039,0.485,1.589,0.721c0.61,0.274,1.232,0.366,1.652,0.684c0.512,0.393,0.84,0.95,1.271,1.38
							c1.264,1.253,2.59,1.951,4.059,2.728c1.925,1.027,3.942,2.191,5.433,3.716c0.442,0.458,0.808,1.081,1.243,1.612
							c0.45,0.551,1.033,1.033,1.421,1.575c0.494,0.695,0.577,1.779,1.623,2.24c1.183-0.93,1.489-2.34,2.724-3.125
							c0.688-0.438,2.199-0.678,3.15-0.584c0.889,0.092,1.455,0.507,2.288,1.112c1.495,1.072,1.944,2.165,2.088,3.634
							c0.092,0.917-0.25,1.759-0.292,2.693c-0.075,1.685,0.401,2.971,0.895,4.749c0.439,1.578,1.208,3.065,2.018,4.613
							c0.43,0.817,0.738,1.709,1.204,2.357c1.237,1.729,2.155,1.836,3.563,2.488c0.701-0.058,1.242-0.07,1.819-0.173
							c0.587-0.102,1.319-0.104,1.878-0.622c0.427-0.405,0.868-1.812,1.039-2.652c0.096-0.471,0.14-0.936,0.176-1.37
							c0.041-0.479,0.107-0.879,0.177-1.37c0.294-2.117,0.064-3.991,0.427-5.572c0.085-0.359,0.369-0.832,0.521-1.325
							c0.193-0.617,0.209-1.057,0.582-1.371c0.383-0.325,1.277-0.575,1.525-0.561c0.84,0.054,1.846,1.395,2.539,2.357
							c0.766,1.077,1.524,2.337,1.895,3.264c0.334,0.826,0.438,1.898,0.66,2.985c0.211,1.033,0.487,2.06,0.594,3.032
							c0.105,0.975,0.173,2.006,0.25,2.997c0.086,1.055,0.249,2.07,0.251,2.985c0.01,1.522-0.397,3.312-0.437,4.759
							c-0.023,0.806,0.073,1.63,0.092,2.387c0.028,0.83,0.229,1.581,0.374,2.49c0.247,1.442,0.294,3.929,1.438,5.052
							c0.469,0.458,1.811,0.855,2.609,0.458c0.857-0.432,0.888-1.376,1.881-1.97c0.466-0.272,0.961-0.293,1.488-0.324
							c1.559-0.091,3.157,0.523,4.58,1.808c0.598,0.532,1.004,1.289,1.541,2c0.526,0.69,1.073,1.298,1.543,1.998
							c0.957,1.394,1.706,2.966,2.647,4.224c0.886,1.196,2.382,2.89,3.222,3.78c1.107,1.178,2.832,2.528,3.607,2.147
							c1.271-0.622,1.1-2.638,1.076-3.398c-0.023-0.681-0.154-1.376-0.252-2.062c-0.111-0.727-0.181-1.435-0.311-2.127
							c-0.35-1.838-0.437-3.549-0.246-5.254c0.112-1.008,0.275-2.115,0.623-3.051c0.346-0.921,0.939-2.117,1.31-2.965
							c0.188-0.418,0.266-0.666,0.249-1.006c-0.061-1.312-1.814-3.304-3.026-4.856c-1.095-1.398-2.491-3.36-3.514-4.693
							c-1.235-1.604-2.626-3.027-3.642-4.581c-1.023-1.572-1.768-3.266-1.934-4.778c-0.098-0.842,0.178-2.606,0.783-3.378
							c0.937-1.194,2.813-1.861,3.977-1.637c1.185,0.236,2.316,1.292,3.346,2.873c0.99,1.524,2.127,3.014,2.871,4.253
							c0.759,1.259,1.336,2.711,2.022,4.087c0.76,1.511,1.837,2.84,2.531,4.22c0.217,0.427,0.303,0.989,0.506,1.453
							c0.233,0.535,0.556,1.003,0.737,1.494c0.654,1.715,0.964,3.283,1.057,4.827c0.117,1.885,0.262,3.856,1.807,5.803
							c0.508,0.274,1.019,0.106,1.559,0.027c0.52-0.077,1.078-0.127,1.596-0.2c1.03-0.147,2.238-0.338,3.173,0.123
							c1.188,0.575,1.872,2.214,2.98,3.453c0.399,0.45,0.88,0.806,1.278,1.27c0.451,0.507,0.736,1.171,1.129,1.594
							c0.521,0.56,1.74,1.19,2.477,1.48c0.818,0.317,2.071,0.492,2.674,0.406c0.991-0.147,2.777-1.046,3.019-2.221
							c0.057-0.287-0.104-0.613-0.214-1.075c-0.099-0.407-0.105-0.83-0.209-1.074c-0.365-0.847-0.988-1.739-1.465-2.562
							c-0.52-0.893-0.949-1.715-1.289-2.607c-0.66-1.696-1.113-3.443-1.773-5.101c-0.701-1.722-1.209-3.308-1.668-5.078
							c-0.404-1.561-1.058-3.939-0.291-4.912c0.411-0.532,1.422-1.042,2.064-1.187c1.328-0.3,2.473,0.568,3.855,1.138
							c0.909,0.371,1.785,0.922,2.59,1.49c4.385,3.104,8.08,8.068,12.673,9.641c0.86,0.3,2.239,0.632,2.847-0.035
							c0.438-0.477,0.062-1.167-0.004-1.741c-0.066-0.514-0.077-1.346,0.398-1.744c0.648-0.547,2.12-0.113,2.896,0.019
							c1.178,0.217,1.884,0.372,2.822,0.597c0.973,0.242,1.961,0.242,2.855,0.374c0.906,0.135,2.03,0.289,2.866-0.674
							c0.121-0.646-0.439-1.22-0.865-1.797c-0.465-0.612-0.964-1.38-1.491-1.93c-0.609-0.637-1.509-1.115-2.205-1.793
							c-0.187-0.179-0.294-0.45-0.499-0.645c-0.473-0.453-1.312-0.875-1.342-1.737c0.134-0.467,0.753-0.361,0.82-0.943
							c0.74-1.218,3.336-2.26,2.324-3.642c-0.488-0.66-1.556-0.424-2.38-0.424c-0.765,0-2.01,0.036-2.591-0.158
							c-1.02-0.342-1.965-0.809-3.042-1.148c-2.077-0.655-4.097-0.931-6.313-1.395c-1.07-0.221-2.476-0.457-3.075-1.326
							c-0.261-0.371-0.487-1.37-0.528-1.748c-0.176-1.475,0.656-2.782,2.209-3.656c1.174-0.666,2.397-1.071,3.564-1.519
							c1.132-0.431,2.297-0.827,3.526-1.281c1.317-0.481,2.365-1.275,3.616-1.968c1.182-0.651,2.473-1.212,3.584-2.148
							c-0.714-1.374-2.015-1.697-3.053-1.963c-0.251-0.06-0.493,0.012-0.75-0.033c-1.021-0.18-1.939-0.635-2.92-0.728
							c-0.527-0.05-1.017,0.082-1.514,0.037c-1.407-0.126-3.199-0.463-4.426-1.211c-0.629-0.38-1.677-1.223-2.064-2.005
							c-0.225-0.463-0.117-1.147-0.117-1.758c0-0.523,0.193-1.276-0.235-1.768c-0.311-0.35-0.997-0.504-1.698-0.337
							c-1.301,0.313-2.358,1.008-3.688,1.613c-0.647,0.296-1.349,0.599-1.856,0.918c-0.954,0.603-1.84,1.373-2.858,1.893
							c-0.633,0.329-1.435,0.589-2.196,0.877c-0.754,0.285-1.452,0.614-2.221,0.991c-1.452,0.716-3.049,1.231-4.477,1.915
							c-0.756,0.36-1.427,0.664-2.199,0.878c-0.729,0.19-1.471,0.249-2.208,0.471c-1.413,0.418-3.126,0.586-4.291,0.428
							c-0.302-0.041-0.581-0.219-0.949-0.297c-1.382-0.312-3.224,0.134-3.796-1.998c-0.209-0.753,0.322-2.263,1.338-3.186
							c1.145-1.048,2.668-1.691,4.019-2.386c2.765-1.418,5.218-2.676,7.862-3.392c0.576-0.158,1.262-0.341,1.926-0.564
							c0.669-0.228,1.455-0.408,2.007-0.726c1.768-1.01,2.692-2.812,3.751-3.921c2.608-2.713,6.201-5.116,8.1-7.889
							c0.745-1.086,1.855-3.125,1.538-4.267c-0.476-1.686-1.924-2.214-3.007-2.304c-1.164-0.096-2.462,0.203-3.658,0.457
							c-1.271,0.266-2.516,0.788-3.775,0.963c-1.225,0.166-2.488,0.387-3.723,0.503c-1.081,0.105-2.707,0.105-3.639-0.177
							c-0.324-0.104-0.641-0.351-0.975-0.478c-0.379-0.138-0.657-0.145-1-0.36c-0.721-0.451-1.126-1.045-2.033-1.713
							c-1.645,0.192-3.752,1.697-5.448,3.066c-1.18,0.957-1.751,2.184-2.798,3.293c-0.484,0.517-1.188,0.923-1.76,1.458
							c-0.564,0.534-0.973,1.084-1.586,1.533c-1.184,0.863-2.23,1.939-3.483,2.684c-0.598,0.357-1.189,0.729-1.819,1.097
							c-0.591,0.344-1.287,0.572-1.861,0.922c-0.826,0.507-1.591,1.143-2.411,1.659c-0.794,0.494-1.634,0.923-2.443,1.365
							c-1.556,0.857-3.652,1.706-4.522-0.002c-0.67-1.303,1.285-2.888,2.041-4.146c0.651-1.084,1.119-2.698,1.688-4.072
							c0.272-0.665,0.609-1.379,0.901-2.029c0.338-0.763,0.87-1.369,1.124-2.001c0.34-0.827,0.388-2.187,0.252-3.272
							c-0.057-0.486-0.109-1.118-0.252-1.659c-0.323-1.236-1.082-3.127-2.582-3.349c-0.744-0.108-1.41,0.555-2.215,0.988
							c-0.613,0.333-1.265,0.526-1.909,0.855c-1.386,0.713-2.75,1.545-3.952,2.333c-2.035,1.326-3.963,2.862-5.964,4.392
							c-1.308,1.001-2.737,1.87-3.965,2.854c-2.413,1.936-2.53,4.438-4.823,6.392c-1.371,1.168-2.707,1.498-3.944,1.814
							c-0.731,0.183-1.567,0.31-2.018,0.32c-0.745,0.013-1.987-0.366-2.37-0.945c-0.303-0.446-0.25-1.338-0.275-1.949
							c-0.052-1.44-0.027-2.557,0.325-3.846c0.184-0.685,0.38-1.391,0.25-1.938c-0.181-0.762-0.73-1.448-1.476-2.048
							c-2.179,0.547-4.186,2.323-6.097,4.087c-0.909,0.837-2.06,1.744-3.106,2.496c-1.064,0.769-2.225,1.615-3.21,1.962
							c-0.632,0.224-1.498,0.151-2.292,0.229c-0.773,0.074-1.574,0.168-2.355,0.271c-1.566,0.213-3.26,0.728-4.788,1.125
							c-1.68,0.436-3.218,0.948-4.772,1.532c-1.566,0.581-3.061,1.38-4.819,1.346c-0.982-0.4-2.002-0.605-3.007-0.967
							c-3.068-1.099-6.053-2.251-9.124-3.036c-1.009-0.255-2.015-0.501-3.03-0.736c-1.029-0.238-2.101-0.306-3.117-0.581
							c-1-0.258-1.996-0.675-3.002-0.965c-0.482-0.136-1.01-0.263-1.521-0.369c-0.492-0.105-1.107-0.275-1.615-0.093
							c-0.104,0.453-0.412,0.874-0.176,1.374C513.005,23.095,515.28,23.717,517.571,24.537z"/>
					</defs>
					<use xlink:href="#SVGID_3_"  overflow="visible" fill-rule="evenodd" clip-rule="evenodd" fill="#BE1E2D"/>
					<clipPath id="SVGID_4_">
						<use xlink:href="#SVGID_3_"  overflow="visible"/>
					</clipPath>
				</g>
				<path fill-rule="evenodd" clip-rule="evenodd" fill="#991320" d="M538.905,29.553c-0.029-0.055,0.017-0.11-0.039-0.175
					c0.357-0.517,1.137-0.355,1.672-0.365c2.823-0.052,5.444,0.697,8.425,0.799c0.538,0.016,1.108,0.107,1.663,0.153
					c0.57,0.047,1.281,0.148,1.676,0.045c0.629-0.166,1.335-0.799,2.083-1.297c1.929-1.292,4.54-2.899,6.31-4.466
					c0.782-0.682,1.326-1.667,2.172-1.982c0.396,0.431-0.104,1.007-0.4,1.34c-2.185,2.44-6.355,4.656-8.666,6.481
					c0.271,0.265,0.828,0.282,1.287,0.339c0.482,0.063,1.018,0.005,1.42,0.242c0.269,0,2.15,0.354,2.783,0.583
					c3.305,1.193,6.709,1.568,10.02,2.69c4.657-1.169,10.301-3.817,15.211-8.241c1.547-1.387,3.012-2.943,4.452-4.356
					c0.692-0.678,1.38-1.444,1.9-2.187c0.509-0.714,0.806-1.868,1.868-1.85c0.207,0.512-0.469,0.991-0.758,1.41
					c-0.305,0.431-0.602,0.901-0.93,1.333c-0.71,0.929-1.634,1.72-2.488,2.639c-1.664,1.785-3.642,3.519-5.588,5.128
					c-0.601,0.502-1.234,0.95-1.938,1.494c-3.286,2.549-6.876,3.877-9.988,5.031c1.244,0.697,2.58,0.539,4.002,0.921
					c0.554,0.15,1.11,0.443,1.717,0.63c2.765,0.843,5.511,1.481,8.486,2.084c1.118,0.223,2.436,0.823,3.383,0.784
					c0.854-0.041,2.191-0.461,3.161-0.695c1.093-0.256,2.163-0.642,3.193-0.922c2.248-0.611,4.293-1.165,6.432-2.182
					c3.689-1.77,7.677-4.146,11.503-5.997c0.542-0.263,1.187-0.403,1.603-0.729c0.606-0.461,1.594-1.688,2.048-2.398
					c1.329-2.087,1.78-4.047,2.829-6.189c0.184-0.368,0.395-0.941,0.931-0.92c0.601,0.566-0.294,1.413-0.554,2.072
					c-0.811,2.001-1.664,4.366-3.14,6.322c1.949-0.674,3.614-2.012,5.698-3.267c0.678-0.409,1.385-0.771,2.068-1.183
					c1.354-0.822,2.779-1.483,4.119-2.25c0.449-0.262,0.826-0.639,1.271-0.883c0.254-0.138,0.535-0.167,0.793-0.301
					c0.609-0.317,1.107-0.907,1.811-0.988c0.264,0.805-0.785,1.241-1.363,1.566c-0.648,0.36-1.377,0.798-1.996,1.133
					c-0.362,0.191-0.791,0.265-1.108,0.439c-0.247,0.14-0.462,0.391-0.704,0.546c-0.582,0.361-1.259,0.666-1.874,1.032
					c-0.62,0.368-1.249,0.688-1.871,1.032c-1.303,0.72-2.501,1.618-3.78,2.299c-1.271,0.679-2.457,1.38-3.734,1.955
					c-1.264,0.57-2.512,1.165-3.551,1.917c-0.273-0.021-0.568,0.21-0.848,0.242c-0.334,0.382-0.714,0.569-1.079,0.729
					c-0.27,0.119-0.459,0.102-0.659,0.206c-0.398,0.204-0.719,0.556-1.08,0.726c-0.293,0.146-0.633,0.163-0.907,0.291
					c-0.396,0.185-0.673,0.502-1.079,0.732c-0.561,0.306-1.195,0.564-1.799,0.869c-0.586,0.294-1.209,0.579-1.795,0.867
					c-1.172,0.59-2.383,1.018-3.406,1.71c-3.035,0.86-6.084,1.873-9.096,2.593c0.838,0.397,1.739,0.531,2.631,0.747
					c0.88,0.213,1.739,0.573,2.629,0.742c1.006,0.198,1.99,0.383,2.984,0.674c0.989,0.297,2.008,0.401,2.992,0.679
					c2.944,0.829,5.887,1.427,8.876,2.193c0.962,0.24,1.938,0.584,2.907,0.834c0.976,0.255,1.996,0.394,2.988,0.679
					c0.469,0.133,0.983,0.301,1.455,0.42c1.447,0.369,2.664,0.501,4.302,0.383c2.844-0.216,5.821-0.896,8.718-1.485
					c2.003-0.407,3.951-1.154,5.908-1.787c1.451-0.471,2.854-0.64,4.4-1.23c0.4-0.153,0.934-0.69,1.426-0.283
					c0.153,0.938-1.048,0.846-1.644,1.066c-0.337,0.12-0.632,0.404-0.942,0.518c-0.521,0.191-1.176,0.137-1.717,0.298
					c-0.473,0.139-0.771,0.501-1.216,0.426c-0.249,0.353-0.673,0.101-1.069,0.211c-0.41,0.101-0.899,0.366-1.34,0.516
					c-0.467,0.165-0.967,0.301-1.249,0.656c-0.866-0.22-1.958,0.552-2.906,0.498c-0.69,0.301-1.464,0.208-2.194,0.349
					c-2.137,0.418-4.336,0.915-6.523,1.132c2.293,1.175,4.777,1.522,7.047,2.476c2.316,0.975,4.602,2.001,6.972,3.045
					c2.368,1.043,4.747,1.976,6.933,3.395c1.678,1.088,3.434,2.314,5.104,3.553c0.275,0.212,0.541,0.432,0.838,0.686
					c0.396,0.338,0.814,0.888,1.215,0.915c0.133,0.007,0.381-0.311,0.461,0.063c-0.449,1.168-1.373,0.242-1.891-0.19
					c-0.61-0.511-1.445-1.135-2.006-1.537c-1.362-0.974-2.907-2.244-4.075-3.021c-0.532-0.351-1.19-0.545-1.8-0.867
					c-2.959-1.562-6.02-2.82-9.04-4.125c-1.251-0.539-2.458-1.17-3.616-1.628c-1.532-0.604-3.174-0.922-4.74-1.479
					c-1.568-0.565-3.104-1.155-4.658-1.651c-2.348-0.737-4.684-1.255-7.075-1.84c-0.788-0.19-1.544-0.569-2.366-0.536
					c2.848,2.289,5.873,5.228,8.704,8.084c1.641,1.658,3.062,3.627,4.55,5.633c1.615,2.173,3.184,4.479,4.405,6.777
					c0.584,1.096,1.075,2.284,1.59,3.393c0.241,0.502,0.618,1.162,0.818,1.731c0.172,0.459,0.448,1.152-0.026,1.562
					c-0.678-0.322-0.742-1.194-0.98-1.811c-0.508-1.311-1.05-2.686-1.795-4.059c-1.293-2.372-2.937-5.057-4.937-7.594
					c-0.889-1.132-1.622-2.305-2.586-3.358c-0.899-0.979-1.843-1.92-2.755-2.9c-0.877-0.943-1.885-1.768-2.785-2.677
					c-0.92-0.942-1.796-1.92-2.722-2.731c-0.478-0.422-1.149-0.742-1.708-1.149c-0.616-0.448-1.104-0.953-1.644-1.2
					c-0.702-0.325-1.526-0.271-2.257-0.521c-0.262-0.092-0.461-0.293-0.697-0.384c-1.53-0.566-3.416-0.879-5.115-1.296
					c-0.973-0.234-1.955-0.389-2.937-0.611c-0.977-0.222-1.935-0.597-2.907-0.84c-1.967-0.485-3.93-0.91-5.843-1.449
					c-1.927-0.542-3.923-0.922-5.825-1.158c2.329,2.926,4.806,6.498,6.883,9.59c1.825,2.722,3.508,5.842,5.485,8.711
					c1.932,2.793,3.292,5.86,4.573,8.594c1.294,2.75,2.641,5.674,4.009,8.521c1.088,2.275,1.849,3.939,2.767,6.389
					c0.069,0.173,0.751,1.789,0.205,2c-0.585,0.219-0.659-0.931-0.762-1.257c-1.162-3.693-3.225-7.335-4.803-10.889
					c-1.954-4.406-3.673-8.281-6.438-12.605c-0.302,0.452-0.259,1.071-0.315,1.584c-0.303,2.719-0.894,5.545-1.253,8.365
					c-0.148,1.106-0.307,2.329-0.956,3.3c-0.583-0.809,0.058-1.647,0.269-2.459c0.156-0.635,0.151-1.415,0.277-2.169
					c0.121-0.722,0.187-1.448,0.281-2.17c0.195-1.53,0.713-3.023,0.785-4.308c0.033-0.541-0.084-1.212-0.056-1.802
					c0.029-0.589,0.222-1.309,0.059-1.794c-0.194-0.536-0.788-1.141-1.214-1.84c-0.352-0.562-0.647-1.234-0.984-1.81
					c-1.11-1.86-2.309-3.276-3.569-5.155c-1.589-2.367-2.96-4.751-5.192-7.401c-0.532-0.63-0.965-1.422-1.504-1.818
					c-0.535-0.389-1.68-0.509-2.52-0.729c-1.735-0.462-3.236-1.02-4.927-1.327c-1.304-0.246-2.441-0.556-3.708-0.948
					c-0.418-0.125-0.818-0.295-1.227-0.39c-2.396-0.57-5.017-1.269-7.425-1.771c2.325,1.776,5.283,5.33,7.044,8.337
					c0.463,0.796,1.057,1.597,1.022,2.391c-0.915,0.084-1.095-0.985-1.37-1.509c-1.087-2.068-3.016-4.881-4.875-6.718
					c-0.593-0.585-1.334-1.115-1.985-1.648c-1.703-1.378-2.816-1.838-4.765-2.183c-1.721-0.297-3.502-0.403-5.264-0.562
					c-0.456-0.043-0.887-0.099-1.323-0.112c-2.497-0.088-5.198-0.671-7.784-0.777C540.452,29.658,539.647,29.919,538.905,29.553z"/>
			</g>
			<path fill-rule="evenodd" clip-rule="evenodd" fill="#991320" d="M510.931,21.129c0.643-0.751,1.803,0.197,3.137,0.462
				c1.328,0.266,5.15,0.881,6.758,1.253c1.601,0.369,9.595,3.449,11.516,4.065c1.924,0.619,5.129,0.743,6.486,1.235
				c1.358,0.495,13.445,1.233,14.06,1.607c0.618,0.367,2.866,1.397,2.866,1.397s-13.848-1.397-15.689-1.397
				c-1.852,0-2.715,0.616-4.196,0.244s-11.138-3.378-13.462-3.847c-2.322-0.47-2.448-0.842-3.801-1.211
				c-1.359-0.371-4.688-1.356-6.17-1.356c-1.478,0-3.083-0.124-2.463-0.861C510.586,21.98,510.931,21.129,510.931,21.129z"/>
		</g>
	</g>
	<g>
		<g>
			<path fill-rule="evenodd" clip-rule="evenodd" fill="#E6F0C9" d="M324.979,10.401c2.733,0.72,3.154-0.594,4.641,0.417
				c1.283,1.279,0.668,5.097,1.026,12.177c0.253,2.32-0.376,4.932-1.746,4.932c-2.279,0.336-3.223-4.614-5.499-8.952
				c-0.941-1.94-3.364-3.815-9.445-3.815c-25.457,0.477-26.014,64.339,3.158,64.339c18.596,0,19.488-9.657,21.456-8.349
				c1.952,1.308-3.739,12.384-21.456,12.384c-29.065,0-36.316-20.376-33.618-44.722C285.825,17.847,303.256,4.811,324.979,10.401z"
				/>
			<path fill-rule="evenodd" clip-rule="evenodd" fill="#E6F0C9" d="M13.142,59.963l0.088-41.165c0-1.628-3.967-0.931-3.967-3.579
				c0-0.65,0.705-1.553,2.118-1.553c8.624-0.396,19.366-1.013,23.669,1.161c7.092,3.598,10.212,10.58,10.308,17.335
				c0.126,8.325-3.741,17.023-14.902,17.023c9.959,2.208,9.336,19.944,25.481,36.1c4.718,4.706,5.305-2.69,8.002-0.005
				c2.061,2.733-2.934,5.245-5.585,5.245c-6.74,0-12.836-6.955-14.529-8.927c-7.8-8.307-10.875-22.368-18.155-31.252
				c-0.266-0.329-0.716-0.938-2.152-0.938c-0.536,0-1.156,0-1.156,0l0.117,11.17c0,1.472,0.365,2.739,1.652,2.739
				c0.628,0,2.286,0.02,2.286,1.648c0,1.622-1.826,1.776-2.269,1.776c-1.532,0-12.234,0-13.67,0c-1.441,0-3.139,0-3.139-1.587
				c0-1.601,1.544-1.812,2.6-1.812c1.082,0,0.7,0,1.339,0C11.914,63.343,13.142,62.347,13.142,59.963z M22.377,45.31
				c2.374,0,2.948,0.052,4.999,0.052c2.54-0.109,9.491-2.678,9.491-13.248c0-8.116-3.341-13.549-8.807-13.795
				c-1.66-0.08-5.562,0.395-5.562,1.575C22.499,21.058,22.377,45.31,22.377,45.31z"/>
			<path fill-rule="evenodd" clip-rule="evenodd" fill="#E6F0C9" d="M186.048,64.172c-1.604,0-1.783-1.87-1.783-3.749V46.04
				c0-6.345-4.109-11.428-10.537-11.428c-6.418,0-8.755,3.221-8.755,5.621c0,2.414,1.707,4.203,3.676,4.203
				c2.494,0,3.559-1.898,3.559-2.7c0-1.564-0.442-2.75-1.33-2.75c0.092-0.092,1.355-1.22,3.031-1.22
				c3.034,0,3.418,3.724,3.473,6.225c-0.448,1.823-3.934,2.425-6.149,3.213c-1.421,0.521-10.439,3.665-10.439,11.786
				c0,8.13,6.07,9.55,7.939,9.55c2.3,0,6.421-1.128,8.701-3.683c0.177,2.176,0.925,3.06,4.241,3.06c1.159,0,0.925,0.075,2.745,0.075
				c3.233,0,3.237-1.68,3.237-1.68S187.655,64.172,186.048,64.172z M172.03,62.121c-4.104,0-3.819-5.756-2.945-7.229
				c1.967-3.305,4.734-4.023,6.076-4.555c1.335-0.536,2.22,0.583,2.22,2.231v4.195C177.38,56.765,177.213,62.121,172.03,62.121z"/>
			<path fill-rule="evenodd" clip-rule="evenodd" fill="#E6F0C9" d="M78.821,43.362c0,2.141,5.722,3.634,8.088,4.489
				c1.438,0.521,11.256,3.659,11.256,11.772c0,8.126-8.724,9.556-13.564,9.556c-4.323,0-12.414-1.713-12.414-10.646
				c0,0,0.146-2.356,1.462-2.625c2.012-0.429,2.231,2.528,2.231,2.528s1.042,6.302,8.798,6.302c4.104,0,7.266-2.523,5.839-5.359
				c-1.07-2.112-6.189-4.415-7.531-4.951c-1.338-0.531-10.633-2.984-10.633-8.884c0-8.309,8.033-9.657,12.057-9.657
				c6.438,0,9.949,3.213,9.949,5.627c0,2.408-1.707,4.191-3.662,4.191c-2.5,0-3.566-2.416-3.566-3.206
				c0-0.808,0.442-2.232,1.338-2.232c0-0.804-1.732-1.715-4.238-1.715C80.665,38.552,78.821,41.052,78.821,43.362z"/>
			<path fill-rule="evenodd" clip-rule="evenodd" fill="#E6F0C9" d="M207.466,41.681c-4.432,0.623-2.714-2.896-1.167-3.58
				c1.677-0.718,3.979-1.347,7.416-3.11c4.084-2.123,3.031,2.843,3.031,5.349v20.084c0,1.879,0.18,3.749,1.781,3.749
				c1.607,0,1.607,2.141,1.607,2.141s-0.003,1.68-3.222,1.68c-1.833,0-5.365,0-7.203,0c-3.217,0-3.225-1.68-3.225-1.68
				s0-2.141,1.603-2.141s1.779-1.87,1.779-3.749V48.102C209.866,40.97,209.227,41.431,207.466,41.681z M212.369,22.707
				c-2.554,0-4.64,2.075-4.64,4.641c0,2.557,2.086,4.644,4.64,4.644c2.56,0,4.649-2.087,4.649-4.644
				C217.018,24.782,214.929,22.707,212.369,22.707z"/>
			<path fill-rule="evenodd" clip-rule="evenodd" fill="#E6F0C9" d="M140.504,51.484c0,9.226-5.791,16.696-12.939,16.696
				c-7.147,0-12.937-7.471-12.937-16.696s5.79-16.693,12.937-16.693C134.714,34.791,140.504,42.259,140.504,51.484z M127.565,39.447
				c-2.8,0-5.072,5.395-5.072,12.049c0,6.645,2.272,12.038,5.072,12.038c2.816,0,5.077-5.394,5.077-12.038
				C132.642,44.842,130.381,39.447,127.565,39.447z"/>
			<path fill-rule="evenodd" clip-rule="evenodd" fill="#E6F0C9" d="M244.328,51.484c0,9.226-5.773,16.696-12.925,16.696
				c-7.155,0-12.953-7.471-12.953-16.696s5.798-16.693,12.953-16.693C238.555,34.791,244.328,42.259,244.328,51.484z
				 M231.403,39.447c-2.809,0-5.08,5.395-5.08,12.049c0,6.645,2.271,12.038,5.08,12.038c2.797,0,5.071-5.394,5.071-12.038
				C236.475,44.842,234.2,39.447,231.403,39.447z"/>
			<path fill-rule="evenodd" clip-rule="evenodd" fill="#E6F0C9" d="M69.646,56.262c-1.464-0.504-2.437,0.794-2.782,1.958
				c-0.893,3.094-0.816,6.594-8.145,6.594c-4.997,0-6.838-3.861-6.376-11.79c0,0,6.621,0,10.711,0c4.084,0,5.728-1.024,5.616-3.111
				c-0.434-8.832-3.536-13.843-11.606-13.843c-7.154,0-12.944,7.47-12.944,16.692c0,9.221,7.448,16.68,14.6,16.68
				c7.926,0,10.722-3.969,11.992-9.173C70.969,58.174,71.19,56.794,69.646,56.262z M57.064,40.737c1.684,0,4.983,0.052,4.983,4.948
				c0,3.26-3.847,2.587-3.847,2.587h-5.65C53.198,43.397,54.793,40.737,57.064,40.737z"/>
			<path fill-rule="evenodd" clip-rule="evenodd" fill="#E6F0C9" d="M189.281,40.712c0,4.483,0,18.401,0,21.721
				c0,3.333,1.373,7.745,7.274,7.745c5.904,0,8.436-4.729,9.092-6.006c1.019-1.968-1.947-2.532-3.022-1.443
				c-4.852,4.841-6.259-2.472-6.259-4.058s0-20.125,0-20.125s2.931,0,4.229,0c1.035,0,3.208-0.195,4.945-2.899
				c0.779-1.222-0.634-1.449-3.236-1.449c-2.608,0-5.939,0-5.939,0s0-8.373,0-10.399c0-0.545,0-4.137-1.592-4.137
				c-2.175,0-1.824,2.305-2.175,5.121c-0.42,3.417-1.174,5.26-3.765,8.553c-1.615,2.04-3.636,2.192-3.636,3.633
				c0,1.447,0.643,1.578,2.525,1.578C189.604,38.546,189.281,40.712,189.281,40.712z"/>
			<path fill-rule="evenodd" clip-rule="evenodd" fill="#E6F0C9" d="M99.914,40.712c0,4.483,0,18.401,0,21.721
				c0,3.333,1.382,7.745,7.289,7.745c5.898,0,8.43-4.729,9.084-6.006c1.021-1.968-1.935-2.532-3.021-1.443
				c-4.845,4.841-6.255-2.472-6.255-4.058s0-20.125,0-20.125s5.054,0,6.353,0c1.036,0,3.204-0.195,4.945-2.899
				c0.782-1.222-0.63-1.449-3.239-1.449c-2.619,0-8.059,0-8.059,0s0-8.373,0-10.399c0-0.545,0-4.137-1.601-4.137
				c-2.161,0-1.818,2.305-2.161,5.121c-0.431,3.417-1.189,5.26-3.764,8.553c-1.632,2.04-3.644,2.192-3.644,3.633
				c0,1.447,0.639,1.578,2.526,1.578C100.254,38.546,99.914,40.712,99.914,40.712z"/>
			<path fill-rule="evenodd" clip-rule="evenodd" fill="#E6F0C9" d="M159.659,35.512c-3.647,0-6.171,2.813-7.843,4.652
				c0.023-2.531,0.987-7.325-3.039-5.23c-3.428,1.766-5.731,2.385-7.408,3.115c-1.559,0.691-3.265,4.202,1.161,3.578
				c1.752-0.246,2.4-0.712,2.4,6.423v12.322c0,1.872-0.18,3.747-1.781,3.747c-1.606,0-1.606,2.138-1.606,2.138
				s0.012,1.684,3.23,1.684h7.209c3.205,0,3.216-1.684,3.216-1.684s0-2.138-1.601-2.138c-1.609,0-1.789-1.875-1.789-3.747V46.337
				c0.584-1.327,1.68-2.221,3.496-2.631c-0.811,0.787,0.792,2.843,3.373,2.843c4.367,0,4.897-4.715,4.897-6.137
				C163.574,38.986,163.939,35.512,159.659,35.512z"/>
			<path fill-rule="evenodd" clip-rule="evenodd" fill="#E6F0C9" d="M352.735,54.354c-1.471-0.494-2.439,0.787-2.773,1.942
				c-0.899,3.105-0.828,6.596-8.162,6.596c-4.996,0-6.828-3.857-6.369-11.783c0,0,6.624,0,10.704,0c4.081,0,5.745-1.021,5.622-3.116
				c-0.437-8.821-3.535-13.835-11.612-13.835c-7.143,0-12.936,7.47-12.936,16.688c0,9.227,7.447,16.695,14.591,16.695
				c7.92,0,10.729-3.986,12.001-9.189C354.055,56.257,354.286,54.882,352.735,54.354z M340.145,38.812
				c1.695,0,4.991,0.071,4.991,4.954c0,3.254-3.855,2.595-3.855,2.595h-5.656C336.28,41.475,337.884,38.812,340.145,38.812z"/>
			<path fill-rule="evenodd" clip-rule="evenodd" fill="#E6F0C9" d="M382.147,54.354c-1.476-0.494-2.447,0.787-2.782,1.942
				c-0.892,3.105-0.822,6.596-8.154,6.596c-4.983,0-6.834-3.857-6.371-11.783c0,0,6.617,0,10.71,0c4.08,0,5.724-1.021,5.618-3.116
				c-0.435-8.821-3.542-13.835-11.606-13.835c-7.159,0-12.954,7.47-12.954,16.688c0,9.227,7.451,16.695,14.604,16.695
				c7.929,0,10.731-3.986,12.001-9.189C383.465,56.257,383.699,54.882,382.147,54.354z M369.562,38.812
				c1.684,0,4.986,0.071,4.986,4.954c0,3.254-3.855,2.595-3.855,2.595h-5.643C365.689,41.475,367.29,38.812,369.562,38.812z"/>
			<path fill-rule="evenodd" clip-rule="evenodd" fill="#E6F0C9" d="M324.307,33.598c-3.664,0-6.171,2.817-7.835,4.651
				c0.023-2.539,0.982-7.317-3.041-5.231c-3.431,1.768-5.73,2.396-7.411,3.126c-1.562,0.667-3.271,4.184,1.155,3.569
				c1.759-0.25,2.409-0.713,2.409,6.425v12.313c0,1.875-0.175,3.753-1.784,3.753c-1.605,0-1.605,2.141-1.605,2.141
				s0.004,1.678,3.232,1.678h7.199c3.217,0,3.217-1.678,3.217-1.678s0-2.141-1.595-2.141c-1.61,0-1.79-1.878-1.79-3.753V44.425
				c0.579-1.33,1.692-2.224,3.502-2.637c-0.816,0.8,0.788,2.849,3.363,2.849c4.376,0,4.91-4.715,4.91-6.143
				C328.233,37.068,328.579,33.598,324.307,33.598z"/>
			<path fill-rule="evenodd" clip-rule="evenodd" fill="#E6F0C9" d="M277.724,63.773c-2.192-1.256-2.554-4.829-4.595-9.503
				c-1.678-3.824-6.966-19.623-12.962-19.623c-2.734,0-4.246,0.902-5.233,2.014c-0.104-1.708-0.734-2.921-3.143-1.671
				c-3.428,1.764-6.313,2.393-7.985,3.11c-1.569,0.685-3.276,4.203,1.15,3.58c1.764-0.25,2.415-0.711,2.415,6.421v12.321
				c0,1.879-0.186,3.749-1.792,3.749c-1.601,0-1.601,2.141-1.601,2.141s0,1.68,3.222,1.68h7.797c3.216,0,3.225-1.68,3.225-1.68
				s-0.063-1.694-1.601-2.141c-1.61-0.473-1.79-1.87-1.79-3.749V45.88c0-2.948,1.767-5.091,3.524-5.091
				c2.286,0,6.932,14.184,7.64,16.918c0.779,3.034,0.813,5.528-0.277,5.973c-1.004,0.409-2.819,0.584-2.819,2.552
				c0,1.195,0.97,1.853,2.067,1.853h11.984c2.393,0,2.852-1.2,2.852-2.31C279.801,64.659,278.521,64.242,277.724,63.773z"/>
			<path fill-rule="evenodd" clip-rule="evenodd" fill="#E6F0C9" d="M436.72,84.233c-1.551-1.547-6.771,5.373-10.871,0.121
				c-13.695-17.492-9.398-38.649-24.629-39.174l7.686-7.052c0,0,0.42-0.713,2.146-0.713c1.72,0,2.498-1.781,2.498-2.081
				c0-0.282-0.494-1.88-2.392-1.88h-8.809c-1.142,0-2.79,0.896-2.79,1.809s2.07,1.724,2.716,1.724c0.651,0-0.779,1.428-1.387,2.04
				c-0.34,0.326-3.812,3.411-6.952,6.188V18.683c0-2.493,1.05-7.468-3.034-5.348c-3.425,1.767-6.74,2.386-8.416,3.122
				c-1.561,0.68-3.271,4.195,1.155,3.567c1.76-0.251,2.407-0.713,2.407,6.433v33.646c0,1.879-0.181,3.751-1.784,3.751
				c-1.605,0-1.605,2.14-1.605,2.14s0.009,1.678,3.232,1.678h8.208c3.227,0,3.227-1.678,3.227-1.678s0-2.14-1.61-2.14
				c-1.594,0-1.779-1.872-1.779-3.751v-8.25l0.921-0.805l0,0c9.385-3.428,13.637,9.023,20.394,26.395
				c4.604,11.804,11.025,12.04,14.712,12.04C432.092,89.483,438.765,85.79,436.72,84.233z"/>
		</g>
		<g>
			<path fill="#E6F0C9" d="M439.931,45.375c0,0,0.175-24.194,0.141-25.355c-0.043-1.182,1.278-1.768,2.146-2.232
				c0.844-0.45,2.316-0.524,1.74-2.083c-0.603-1.564-2.065-2.178-3.494-1.936c-1.852,0.32-7.856-0.125-11.493,0.042
				c-1.425,0-2.12,0.899-2.12,1.551c0,2.644,3.969,1.947,3.969,3.579l-0.083,41.032c0,2.389-1.229,3.379-1.863,3.379
				c-0.636,0-0.272,0-1.327,0c-1.062,0-2.604,0.217-2.604,1.804s1.709,1.587,3.134,1.587c1.432,0,12.094,0,13.636,0
				c0.432,0,2.247-0.154,2.247-1.776c0-1.614-1.658-1.64-2.258-1.64c-1.293,0-1.67-1.265-1.67-2.733l-0.1-11.14
				C439.931,49.453,440.11,45.375,439.931,45.375z"/>
			<path fill-rule="evenodd" clip-rule="evenodd" fill="#E6F0C9" d="M480.08,62.892c-2.188-1.252-2.559-4.814-4.596-9.477
				c-1.668-3.811-6.95-19.562-12.918-19.562c-2.729,0-4.243,0.897-5.229,2.01c-0.104-1.706-0.717-2.929-3.127-1.682
				c-3.4,1.772-6.291,2.39-7.967,3.119c-1.555,0.672-3.258,4.182,1.152,3.556c1.753-0.25,2.404-0.707,2.404,6.403v12.296
				c0,1.858-0.181,3.739-1.775,3.739c-1.596,0-1.596,2.136-1.596,2.136s0,1.674,3.204,1.674h7.767c3.21,0,3.233-1.674,3.233-1.674
				s-0.069-1.683-1.614-2.136c-1.597-0.477-1.773-1.881-1.773-3.739V45.041c0-2.93,1.766-5.068,3.505-5.068
				c2.29,0,6.92,14.149,7.63,16.867c0.779,3.03,0.809,5.516-0.275,5.958c-0.997,0.411-2.828,0.57-2.828,2.549
				c0,1.189,0.983,1.84,2.074,1.84h11.951c2.382,0,2.844-1.192,2.844-2.306C482.146,63.765,480.866,63.356,480.08,62.892z"/>
			<g>
				<path fill="#E6F0C9" d="M505.922,54.128c-1.451-0.479-2.438,0.8-2.774,1.958c-0.896,3.091-0.82,6.571-8.126,6.571
					c-4.831,0-6.702-3.632-6.379-11.063c-0.103-4.467,0.228-9.173,2.281-11.606c0.296-0.374,0.615-0.682,0.953-0.888
					c3.063-2.416,6.466-1.604,8.051,1.147c1.674,2.899,2.29,5.023,2.29,5.023l2.136-0.994c-0.122-0.811-0.032-1.672-0.195-2.38
					c-1.341-5.388-4.518-7.894-10.776-7.894c-7.133,0-12.911,7.443-12.911,16.641c0,9.187,7.412,16.644,14.551,16.644
					c7.91,0,10.689-3.97,11.967-9.164C507.238,56.046,507.459,54.658,505.922,54.128z"/>
				<path fill="#E6F0C9" d="M501.521,40.676l-1.954-0.175c0,0-1.852-0.552-2.775,1.664c-0.951,2.291,0.021,5.619,3.515,5.356
					c2.088-0.177,3.865-1.281,4.12-3.539c0.099-0.87-0.569-3.167-0.569-3.167L501.521,40.676z"/>
			</g>
			<path fill-rule="evenodd" clip-rule="evenodd" fill="#E6F0C9" d="M513.373,59.088c-2.554,0-4.633,2.072-4.633,4.623
				c0,2.558,2.079,4.629,4.633,4.629c2.563,0,4.638-2.071,4.638-4.629C518.011,61.16,515.937,59.088,513.373,59.088z"/>
		</g>
	</g>
</g>
</svg>
